<mxfile host="65bd71144e">
    <diagram name="Page-1" id="2zioo83s16DX7Tl0C2Zv">
        <mxGraphModel dx="990" dy="4709" grid="1" gridSize="10" guides="1" tooltips="1" connect="1" arrows="1" fold="1" page="1" pageScale="1" pageWidth="4681" pageHeight="3300" math="0" shadow="0">
            <root>
                <mxCell id="0"/>
                <mxCell id="1" parent="0"/>
                <mxCell id="7Ru0jLsbH5EKcZHn-sVH-3" style="rounded=0;orthogonalLoop=1;jettySize=auto;html=1;exitX=1;exitY=0;exitDx=0;exitDy=0;entryX=0;entryY=0;entryDx=0;entryDy=0;strokeWidth=2;strokeColor=#3399FF;" parent="1" source="9a8qMosVaYQrsiDTp7nS-1" target="7Ru0jLsbH5EKcZHn-sVH-1" edge="1">
                    <mxGeometry relative="1" as="geometry"/>
                </mxCell>
                <mxCell id="9a8qMosVaYQrsiDTp7nS-1" value="my_class.h" style="swimlane;whiteSpace=wrap;html=1;rounded=1;arcSize=21;startSize=23;fillColor=#d5e8d4;strokeColor=#82b366;" parent="1" vertex="1">
                    <mxGeometry x="190" y="80" width="280" height="530" as="geometry">
                        <mxRectangle x="190" y="80" width="110" height="30" as="alternateBounds"/>
                    </mxGeometry>
                </mxCell>
                <mxCell id="7Ru0jLsbH5EKcZHn-sVH-1" value="my_class.cpp" style="swimlane;whiteSpace=wrap;html=1;rounded=1;arcSize=12;startSize=20;fillColor=#dae8fc;strokeColor=#6c8ebf;" parent="1" vertex="1">
                    <mxGeometry x="770" y="90" width="300" height="610" as="geometry"/>
                </mxCell>
                <mxCell id="7Ru0jLsbH5EKcZHn-sVH-4" value="static void method" style="rounded=1;whiteSpace=wrap;html=1;" parent="7Ru0jLsbH5EKcZHn-sVH-1" vertex="1">
                    <mxGeometry x="40" y="62" width="120" height="30" as="geometry"/>
                </mxCell>
                <mxCell id="7Ru0jLsbH5EKcZHn-sVH-12" style="rounded=0;orthogonalLoop=1;jettySize=auto;html=1;exitX=1;exitY=0.5;exitDx=0;exitDy=0;entryX=1;entryY=0.495;entryDx=0;entryDy=0;entryPerimeter=0;" parent="1" source="7Ru0jLsbH5EKcZHn-sVH-6" target="7Ru0jLsbH5EKcZHn-sVH-9" edge="1">
                    <mxGeometry relative="1" as="geometry"/>
                </mxCell>
                <mxCell id="7Ru0jLsbH5EKcZHn-sVH-6" value="" style="rounded=1;whiteSpace=wrap;html=1;" parent="1" vertex="1">
                    <mxGeometry x="230" y="152" width="120" height="20" as="geometry"/>
                </mxCell>
                <mxCell id="7Ru0jLsbH5EKcZHn-sVH-13" style="rounded=0;orthogonalLoop=1;jettySize=auto;html=1;exitX=0;exitY=0.5;exitDx=0;exitDy=0;exitPerimeter=0;entryX=0;entryY=0.5;entryDx=0;entryDy=0;" parent="1" source="7Ru0jLsbH5EKcZHn-sVH-9" target="7Ru0jLsbH5EKcZHn-sVH-4" edge="1">
                    <mxGeometry relative="1" as="geometry"/>
                </mxCell>
                <mxCell id="7Ru0jLsbH5EKcZHn-sVH-9" value="should not declare in header" style="shape=note;whiteSpace=wrap;html=1;backgroundOutline=1;fontColor=#000000;darkOpacity=0.05;fillColor=#FFF9B2;strokeColor=none;fillStyle=solid;direction=west;gradientDirection=north;gradientColor=#FFF2A1;shadow=1;size=20;pointerEvents=1;" parent="1" vertex="1">
                    <mxGeometry x="440" y="147" width="140" height="30" as="geometry"/>
                </mxCell>
                <mxCell id="7Ru0jLsbH5EKcZHn-sVH-15" value="main.cpp" style="swimlane;whiteSpace=wrap;html=1;fillColor=#f8cecc;strokeColor=#b85450;" parent="1" vertex="1">
                    <mxGeometry x="210" y="680" width="290" height="310" as="geometry"/>
                </mxCell>
                <mxCell id="6jgR9pV2GnDQLHaatt_o-4" value="#pragma once" style="text;html=1;align=center;verticalAlign=middle;resizable=0;points=[];autosize=1;strokeColor=none;fillColor=none;" parent="1" vertex="1">
                    <mxGeometry x="230" y="105" width="100" height="30" as="geometry"/>
                </mxCell>
                <mxCell id="KxGmBfHFkdDxSSpCDwrf-4" value="&lt;font style=&quot;font-size: 9px;&quot;&gt;used only in the&amp;nbsp; block that defined&lt;/font&gt;" style="ellipse;shape=cloud;whiteSpace=wrap;html=1;align=center;fillColor=#fff2cc;strokeColor=#d6b656;" parent="1" vertex="1">
                    <mxGeometry x="570" y="-80" width="140" height="70" as="geometry"/>
                </mxCell>
                <mxCell id="KxGmBfHFkdDxSSpCDwrf-2" style="rounded=0;orthogonalLoop=1;jettySize=auto;html=1;exitX=0;exitY=0;exitDx=0;exitDy=0;dashed=1;dashPattern=8 8;entryX=0.8;entryY=0.8;entryDx=0;entryDy=0;entryPerimeter=0;" parent="1" source="7Ru0jLsbH5EKcZHn-sVH-4" target="KxGmBfHFkdDxSSpCDwrf-4" edge="1">
                    <mxGeometry relative="1" as="geometry">
                        <mxPoint x="760" y="20" as="targetPoint"/>
                    </mxGeometry>
                </mxCell>
            </root>
        </mxGraphModel>
    </diagram>
</mxfile>